<svg width="16" height="15" viewBox="0 0 16 15" fill="none" xmlns="http://www.w3.org/2000/svg">
<path d="M7.66506 12.4478L5.29241 10.0752L1.63988 10.0752C1.28726 10.0711 0.987453 9.94557 0.74045 9.69857C0.493437 9.45156 0.369923 9.15377 0.369912 8.80521L0.386036 5.85765C0.377059 5.51805 0.496646 5.22418 0.744798 4.97603C0.99295 4.72788 1.29131 4.6038 1.63988 4.6038L5.2763 4.61248L7.66136 2.22742L7.66506 12.4478ZM10.143 0.461874C11.6587 0.946731 12.8928 1.81444 13.8451 3.06499C14.7975 4.31554 15.2737 5.73376 15.2737 7.31966C15.2737 8.90556 14.7975 10.3238 13.8451 11.5743C12.8928 12.8249 11.6587 13.6926 10.143 14.1774L10.1306 13.4167C11.4555 12.9624 12.5246 12.1821 13.3378 11.0756C14.1509 9.96923 14.5575 8.71724 14.5575 7.31966C14.5575 5.92209 14.1509 4.66885 13.3377 3.55997C12.5246 2.45107 11.4555 1.67195 10.1306 1.22263L10.143 0.461874ZM10.143 4.0921C10.7088 4.4415 11.153 4.90509 11.4756 5.48287C11.7981 6.06065 11.9635 6.68241 11.9718 7.34817C11.9635 8.01391 11.7975 8.63504 11.4737 9.21158C11.1499 9.78813 10.7051 10.2428 10.1393 10.5757L10.143 9.72948C10.4825 9.43295 10.7534 9.07984 10.9558 8.67015C11.1582 8.26047 11.2594 7.82104 11.2593 7.35187C11.2594 6.88271 11.1629 6.44266 10.97 6.03175C10.7772 5.62082 10.4974 5.26998 10.1306 4.97921L10.143 4.0921Z" fill="#787878"/>
</svg>
