<svg width="15" height="17" viewBox="0 0 15 17" fill="none" xmlns="http://www.w3.org/2000/svg">
<path d="M7.63263 16.6328C6.66227 16.6328 5.75277 16.451 4.90414 16.0876C4.05551 15.7241 3.31316 15.2244 2.67709 14.5883C2.04104 13.9522 1.54128 13.2099 1.17782 12.3613C0.81436 11.5126 0.632629 10.6031 0.632629 9.63276C0.632629 8.6624 0.81436 7.75291 1.17782 6.90427C1.54128 6.05564 2.04104 5.31329 2.67709 4.67722C3.31316 4.04117 4.05551 3.54141 4.90414 3.17795C5.75277 2.81449 6.66227 2.63276 7.63263 2.63276H8.13575L6.51364 1.01064L6.98983 0.55127L9.38094 2.92554L7.0235 5.29983L6.5473 4.8354L8.09369 3.30583H7.59056C5.82373 3.30583 4.33455 3.92142 3.12301 5.15259C1.91147 6.38376 1.3057 7.87715 1.3057 9.63276C1.3057 11.3884 1.92129 12.8818 3.15245 14.1129C4.38362 15.3441 5.87701 15.9597 7.63263 15.9597C9.38824 15.9597 10.8816 15.3441 12.1128 14.1129C13.344 12.8818 13.9596 11.3884 13.9596 9.63276H14.6326C14.6326 10.6031 14.4509 11.5126 14.0874 12.3613C13.724 13.2099 13.2242 13.9522 12.5882 14.5883C11.9521 15.2244 11.2098 15.7241 10.3611 16.0876C9.51249 16.451 8.60299 16.6328 7.63263 16.6328Z" fill="#5C5C5C"/>
</svg>
