<svg width="25" height="18" viewBox="0 0 25 18" fill="none" xmlns="http://www.w3.org/2000/svg">
<path d="M17.3856 17.43C16.4631 17.43 15.677 17.1134 15.0274 16.4803C14.3778 15.8472 14.0531 15.0784 14.0531 14.1739C14.0531 13.2694 14.3709 12.5005 15.0066 11.8672C15.6423 11.2338 16.4142 10.9172 17.3223 10.9172C17.7203 10.9172 18.1108 10.9847 18.4939 11.1197C18.8769 11.2548 19.2607 11.4685 19.6454 11.7608V0.0966797H24.712V2.00181H20.671V14.1941C20.671 15.093 20.3541 15.857 19.7203 16.4862C19.0864 17.1154 18.3082 17.43 17.3856 17.43ZM0.712036 11.9428V10.9172H9.8351V11.9428H0.712036ZM0.712036 6.51975V5.49411H15.2736V6.51975H0.712036ZM0.712036 1.12231V0.0966797H15.2736V1.12231H0.712036Z" fill="#787878"/>
</svg>
