<svg width="21" height="19" viewBox="0 0 21 19" fill="none" xmlns="http://www.w3.org/2000/svg">
<path d="M10.8959 18.647L10.2698 18.0679C8.41085 16.3691 6.87702 14.9102 5.66832 13.6913C4.45962 12.4723 3.50057 11.3988 2.79118 10.4707C2.08177 9.54264 1.58853 8.70702 1.31146 7.96384C1.0344 7.22065 0.895874 6.48255 0.895874 5.74953C0.895874 4.37112 1.36347 3.21349 2.29865 2.27662C3.23384 1.33976 4.39018 0.871338 5.76768 0.871338C6.78049 0.871338 7.72173 1.1427 8.59137 1.68542C9.46104 2.22816 10.2292 3.02162 10.8959 4.06578C11.6167 2.99456 12.4005 2.19435 13.2475 1.66514C14.0945 1.13594 15.02 0.871338 16.0241 0.871338C17.4016 0.871338 18.5579 1.33976 19.4931 2.27662C20.4283 3.21349 20.8959 4.37112 20.8959 5.74953C20.8959 6.48255 20.7573 7.22065 20.4803 7.96384C20.2032 8.70702 19.7108 9.54111 19.003 10.4661C18.2953 11.3911 17.3362 12.4646 16.1259 13.6866C14.9155 14.9087 13.3809 16.3691 11.522 18.0679L10.8959 18.647ZM10.8959 17.4995C12.7144 15.8408 14.2109 14.4198 15.3854 13.2366C16.5599 12.0534 17.4931 11.0194 18.185 10.1346C18.8768 9.24967 19.3592 8.46512 19.632 7.78092C19.9048 7.0967 20.0412 6.42091 20.0412 5.75356C20.0412 4.59988 19.6594 3.6402 18.8959 2.87453C18.1323 2.10887 17.1772 1.72603 16.0303 1.72603C15.0904 1.72603 14.2322 1.99989 13.4558 2.54762C12.6794 3.09534 11.9486 3.94684 11.2634 5.10212H10.5219C9.82678 3.95112 9.09113 3.10068 8.31499 2.55081C7.53884 2.00096 6.68765 1.72603 5.76143 1.72603C4.62884 1.72603 3.67722 2.10887 2.90657 2.87453C2.1359 3.6402 1.75057 4.60382 1.75057 5.76539C1.75057 6.42871 1.88811 7.10287 2.16318 7.78789C2.43825 8.47289 2.91688 9.25776 3.59907 10.1425C4.28127 11.0273 5.21568 12.0594 6.40229 13.2389C7.5889 14.4183 9.08676 15.8386 10.8959 17.4995Z" fill="#787878"/>
</svg>
