<svg width="36" height="14" viewBox="0 0 36 14" fill="none" xmlns="http://www.w3.org/2000/svg">
<path d="M6.56109 10.24H4.60109V14H0.881094V-9.53674e-07H6.56109C7.69443 -9.53674e-07 8.67443 0.146666 9.50109 0.439999C10.3278 0.72 10.9611 1.11333 11.4011 1.62C11.8411 2.12667 12.1611 2.66667 12.3611 3.24C12.5611 3.81333 12.6611 4.44 12.6611 5.12C12.6611 5.8 12.5611 6.42667 12.3611 7C12.1611 7.57333 11.8411 8.11333 11.4011 8.62C10.9611 9.12667 10.3278 9.52667 9.50109 9.82C8.67443 10.1 7.69443 10.24 6.56109 10.24ZM6.50109 3.14H4.60109V7.12H6.50109C8.08776 7.12 8.88109 6.46 8.88109 5.14C8.88109 3.80667 8.08776 3.14 6.50109 3.14ZM14.3186 14V-9.53674e-07H18.0386V10.76H24.1986V14H14.3186ZM29.4644 -9.53674e-07V14H25.7444V-9.53674e-07H29.4644ZM35.6948 -9.53674e-07V14H31.9748V-9.53674e-07H35.6948Z" fill="white"/>
</svg>
